# xmcd CD database file
#
# Track frame offsets:
#	187
#	24712
#	46440
#	64317
#	85790
#	104830
#	126672
#	149075
#
# Disc length: 2244 seconds
#
# Revision: 1
# Processed by: cddbd v1.5.1PL0 Copyright (c) Steve Scherf et al.
# Submitted via: CDex 1.51
#
DISCID=8108c208
DTITLE=El Gran Combo - Amame
DYEAR=1979
DGENRE=Salsa
TTITLE0=Amame
TTITLE1=Otra Vez Enamorado
TTITLE2=Tu Mirada
TTITLE3=Cenizas
TTITLE4=Aguacero
TTITLE5=Te Seguire
TTITLE6=Brindis A La Vida
TTITLE7=Todo Bien
EXTD=YEAR: 1979
EXTT0=
EXTT1=
EXTT2=
EXTT3=
EXTT4=
EXTT5=
EXTT6=
EXTT7=
PLAYORDER=
